<svg width="211" height="211" viewBox="0 0 211 211" fill="none" xmlns="http://www.w3.org/2000/svg">
<path d="M92.0072 2.34604C86.4053 1.29418 81.067 0.76825 75.9924 0.76825C71.0496 0.76825 65.7443 1.26131 60.0765 2.24743C54.4747 3.16781 48.8728 4.77847 43.2709 7.07941C37.735 9.38035 32.3638 12.4373 27.1573 16.2503C22.0168 19.9976 17.4694 24.6981 13.5151 30.3518C9.62678 36.0056 6.49633 42.7112 4.12377 50.4686C1.75122 58.1604 0.564941 67.0683 0.564941 77.1925C0.564941 87.0536 1.68531 95.7972 3.92606 103.423C6.23271 110.983 9.29726 117.59 13.1197 123.244C17.0081 128.832 21.4566 133.566 26.4653 137.444C31.54 141.257 36.8453 144.347 42.3812 146.714C47.9172 149.015 53.4861 150.658 59.088 151.644C63.6118 152.484 64.7624 152.989 68.8664 153.158C68.8686 151.972 68.8724 150.787 68.8761 149.603C68.88 148.372 68.8839 147.143 68.886 145.918C63.953 145.61 62.6641 144.626 58.6925 142.967C53.8815 140.863 49.6636 138.069 46.0389 134.585C42.4142 131.1 39.3496 127.057 36.8453 122.455C34.4068 117.853 32.4297 113.021 30.9139 107.959C29.3981 102.832 28.3106 97.638 27.6516 92.3787C26.9926 87.1194 26.663 82.0573 26.663 77.1925C26.663 72.1304 26.9926 66.9039 27.6516 61.5132C28.3766 56.1224 29.4969 50.8631 31.0127 45.7353C32.5944 40.6074 34.6375 35.7755 37.1418 31.2393C39.6462 26.6374 42.7107 22.6272 46.3355 19.2087C49.9602 15.7244 54.1781 12.9633 58.9891 10.9253C63.8001 8.88729 69.3031 7.8683 75.4981 7.8683C81.6272 7.8683 87.0973 8.88729 91.9083 10.9253C96.7193 12.9633 100.937 15.7244 104.562 19.2087C108.187 22.6272 111.251 26.6374 113.756 31.2393C116.26 35.7755 118.27 40.6074 119.786 45.7353C121.368 50.8631 122.488 56.1224 123.147 61.5132C123.872 66.9039 124.234 72.1304 124.234 77.1925C124.234 80.3883 124.086 83.6514 123.789 86.9817C129.369 96.8059 129.312 114.58 129.255 132.829C129.254 133.056 129.253 133.284 129.253 133.512C132.453 130.489 135.361 127.067 137.975 123.244C141.798 117.59 144.829 110.983 147.07 103.423C149.311 95.7972 150.431 87.0536 150.431 77.1925C150.431 67.397 149.278 58.7192 146.971 51.1589C144.731 43.5987 141.699 36.9917 137.877 31.3379C134.054 25.6842 129.606 20.9179 124.531 17.0392C119.522 13.0947 114.25 9.93915 108.714 7.57247C103.244 5.14004 97.6749 3.3979 92.0072 2.34604Z" fill="white"/>
<path d="M109.346 171.84C107.125 169.905 105.328 169.76 102.741 170.142C100.154 170.525 95.7396 173.698 94.7006 176.453C93.8906 178.601 93.7913 180.948 94.6088 183.059L110.77 178.515L110.766 178.507L113.212 177.82C112.343 175.862 111.436 173.662 109.346 171.84Z" fill="white"/>
<path d="M66.0585 111.916L42.7225 118.792C39.6884 110.135 43.358 101.318 50.3577 99.8174C52.2133 99.4197 54.3873 99.4967 56.8526 100.271C61.4018 101.701 64.2652 105.641 66.0585 111.916Z" fill="white"/>
<path d="M153.801 192.137L153.706 192.154L114.066 203.247C117.952 196.446 119.162 187.504 117.273 179.854C116.18 175.428 114.044 171.371 110.77 168.383L128.083 163.668L154.715 155.917C156.681 155.404 159.125 155.833 161.782 158.232C166.568 162.553 168.119 170.257 166.571 177.521C165.035 184.731 160.552 190.911 153.801 192.137Z" fill="white"/>
<path d="M58.1361 96.707C55.3654 95.8364 52.8334 95.723 50.594 96.2029L104.648 81.0062C106.887 80.5262 109.419 80.6396 112.19 81.5102C131.157 87.4698 124.194 129.441 126.553 160.644L99.8378 167.711C92.153 170.355 88.4 179.616 93.071 186.688L113.882 180.837C116.551 191.651 112.144 205.347 102.457 209.512C98.2196 211.333 92.9725 211.331 86.8656 208.467C63.935 197.712 76.023 142.595 69.9331 113.708C68.1088 105.054 64.6532 98.7548 58.1361 96.707Z" fill="white"/>
<path d="M175.077 112.355L167.627 110.369L170.652 96.7836C174.433 80.3714 177.647 62.5149 180.292 43.2141C183.001 23.9302 184.832 12.5099 185.785 8.95311C186.397 6.66662 187.362 4.84823 188.678 3.49795C190.059 2.16464 191.534 1.36707 193.105 1.10525C194.757 0.796875 196.181 0.700137 197.378 0.815031C198.592 0.866412 199.74 1.03634 200.823 1.3248C201.969 1.63024 203.049 2.05422 204.064 2.59674C205.159 3.09271 206.345 3.88516 207.622 4.97409C208.916 5.99951 209.797 7.42491 210.263 9.25032C210.729 11.0757 210.656 13.1317 210.043 15.4182C208.87 19.8006 204.723 31.0801 197.604 49.2566C190.565 67.3866 184.542 84.018 179.534 99.1507L175.077 112.355ZM154.151 141.584C152.488 138.623 152.099 135.491 152.983 132.189C153.868 128.886 155.763 126.397 158.667 124.721C161.652 122.999 164.8 122.579 168.111 123.461C171.422 124.344 173.909 126.265 175.572 129.226C177.315 132.141 177.745 135.249 176.86 138.552C175.976 141.855 174.041 144.367 171.055 146.089C168.151 147.765 165.043 148.161 161.732 147.279C158.421 146.397 155.894 144.498 154.151 141.584Z" fill="white"/>
</svg>
