<?xml version="1.0" standalone="no"?>
<!DOCTYPE svg PUBLIC "-//W3C//DTD SVG 20010904//EN"
 "http://www.w3.org/TR/2001/REC-SVG-20010904/DTD/svg10.dtd">
<svg version="1.0" xmlns="http://www.w3.org/2000/svg"
 width="301.000000pt" height="301.000000pt" viewBox="0 0 301.000000 301.000000"
 preserveAspectRatio="xMidYMid meet">
<metadata>
Created by potrace 1.14, written by Peter Selinger 2001-2017
</metadata>
<g transform="translate(0.000000,301.000000) scale(0.100000,-0.100000)"
fill="#000000" stroke="none">
<path d="M960 2680 c-309 -64 -530 -264 -614 -554 -59 -202 -53 -462 15 -646
108 -292 335 -462 689 -516 36 -5 36 -5 36 33 0 40 -9 53 -39 53 -10 0 -52 16
-93 37 -144 70 -247 205 -303 398 -75 258 -56 591 47 815 60 133 146 224 259
277 66 31 81 34 180 40 252 15 448 -144 531 -432 37 -127 44 -179 47 -331 2
-87 8 -160 14 -172 26 -48 43 -177 44 -333 1 -87 3 -159 5 -159 7 0 64 64 90
102 66 97 126 249 139 357 9 69 9 280 1 341 -48 346 -263 589 -605 682 -109
29 -324 33 -443 8z"/>
<path d="M2472 2684 c-39 -27 -55 -73 -77 -224 -7 -49 -33 -227 -40 -275 -4
-22 -11 -69 -16 -105 -6 -36 -12 -78 -15 -95 -3 -25 -23 -133 -39 -215 -3 -14
-19 -89 -37 -168 -19 -88 -28 -146 -22 -152 5 -5 24 -11 43 -12 l33 -3 77 225
c43 124 108 304 145 400 117 303 175 467 180 504 6 45 -26 94 -74 118 -45 22
-128 23 -158 2z"/>
<path d="M1220 1708 c-151 -43 -280 -80 -287 -82 -27 -5 -25 -16 3 -16 77 0
151 -101 169 -230 8 -59 16 -254 20 -490 2 -124 6 -243 10 -265 19 -129 58
-221 115 -269 41 -34 130 -60 178 -51 97 17 172 118 179 242 6 102 5 102 -127
63 -130 -37 -135 -36 -135 45 0 63 23 101 76 127 28 14 147 50 209 63 79 17
110 29 110 44 1 9 0 115 0 236 -2 300 -5 363 -25 469 -11 54 -47 126 -77 151
-29 25 -88 46 -123 44 -11 -1 -144 -37 -295 -81z"/>
<path d="M873 1572 c-26 -4 -72 -48 -84 -80 -13 -35 -17 -94 -8 -118 7 -21 8
-21 135 17 69 21 129 41 132 44 10 10 -37 94 -62 111 -30 19 -82 31 -113 26z"/>
<path d="M2145 1299 c-91 -25 -130 -141 -75 -219 24 -33 94 -63 133 -56 88 16
140 98 114 181 -12 39 -67 95 -95 96 -9 0 -24 2 -32 3 -8 2 -29 -1 -45 -5z"/>
<path d="M2030 919 c-14 -6 -32 -12 -40 -14 -29 -6 -385 -106 -404 -113 -17
-7 -17 -10 -4 -23 64 -64 86 -231 43 -333 -9 -21 -15 -40 -13 -41 3 -3 272 70
430 117 106 31 160 102 164 216 6 143 -76 231 -176 191z"/>
<path d="M1442 754 c-37 -19 -61 -49 -67 -85 -8 -44 5 -51 65 -33 29 9 61 17
69 19 86 20 94 31 54 74 -35 38 -77 47 -121 25z"/>
</g>
</svg>
